# xmcd
#
# Track frame offsets: 
#        182
#        20620
#        42815
#        76445
#
# Disc length: 1407 seconds
#
# Revision: 0
# Processed by: cddbd v1.4PL0 Copyright (c) Steve Scherf et al.
# Submitted via: ExactAudioCopy v0.95a3
#
DISCID=26057d04
DTITLE=Terry Callier - Love Theme From Spartacus
DYEAR=1998
DGENRE=Soul
TTITLE0=Love Theme From Spartacus
TTITLE1=Keep Your Heart Right
TTITLE2=African Violet (Live)
TTITLE3=What Color Is Love (Live)
EXTD=
EXTT0=
EXTT1=
EXTT2=
EXTT3=
PLAYORDER=
